<svg width="146" height="129" viewBox="0 0 146 129" fill="none" xmlns="http://www.w3.org/2000/svg">
<g clip-path="url(#clip0_25_10)">
<path d="M105.66 115.22L98.51 113.27C96.99 112.86 95.8 111.66 95.38 110.14L93.43 102.99C93.38 102.79 93.2 102.66 92.99 102.66C92.78 102.66 92.61 102.8 92.55 102.99L90.6 110.14C90.19 111.65 88.99 112.85 87.47 113.27L80.32 115.22C80.12 115.27 79.99 115.45 79.99 115.66C79.99 115.87 80.13 116.04 80.33 116.1L87.48 118.05C88.99 118.46 90.19 119.66 90.61 121.18L92.56 128.33C92.67 128.73 93.33 128.73 93.44 128.33L95.39 121.18C95.8 119.67 97 118.47 98.52 118.05L105.67 116.1C105.87 116.05 106 115.87 106 115.66C106 115.45 105.86 115.27 105.66 115.22V115.22Z" fill="white"/>
<path d="M145.66 115.22L138.51 113.27C136.99 112.86 135.8 111.66 135.38 110.14L133.43 102.99C133.38 102.79 133.2 102.66 132.99 102.66C132.78 102.66 132.61 102.8 132.55 102.99L130.6 110.14C130.19 111.65 128.99 112.85 127.47 113.27L120.32 115.22C120.12 115.27 119.99 115.45 119.99 115.66C119.99 115.87 120.13 116.04 120.33 116.1L127.48 118.05C128.99 118.46 130.19 119.66 130.61 121.18L132.56 128.33C132.67 128.73 133.33 128.73 133.44 128.33L135.39 121.18C135.8 119.67 137 118.47 138.52 118.05L145.67 116.1C145.87 116.05 146 115.87 146 115.66C146 115.45 145.86 115.27 145.66 115.22V115.22Z" fill="white"/>
<path d="M3.12 8.99C49.49 12.08 96.51 12.08 142.88 8.99C144.63 8.87 146 7.41 146 5.65C146 3.89 144.63 2.43 142.88 2.31C119.69 0.77 96.35 0 73 0C49.65 0 26.31 0.77 3.12 2.32C1.37 2.44 0 3.9 0 5.66C0 7.42 1.37 8.88 3.12 9V8.99Z" fill="white"/>
<path d="M142.88 57.32C119.7 55.77 96.35 55 73 55C49.65 55 26.31 55.77 3.12 57.32C1.37 57.44 0 58.9 0 60.66C0 62.42 1.37 63.88 3.12 64C49.49 67.09 96.51 67.09 142.88 64C144.63 63.88 146 62.42 146 60.66C146 58.9 144.63 57.44 142.88 57.32V57.32Z" fill="white"/>
<path d="M62.77 111.93C52.89 110.52 42.95 109.81 33 109.81C23.05 109.81 13.11 110.52 3.23 111.93C1.39 112.19 0 113.8 0 115.66C0 117.52 1.39 119.12 3.23 119.39C22.98 122.21 43.01 122.21 62.76 119.39C64.6 119.13 65.99 117.52 65.99 115.66C65.99 113.8 64.6 112.2 62.76 111.93H62.77Z" fill="white"/>
</g>
<defs>
<clipPath id="clip0_25_10">
<rect width="146" height="128.62" fill="white"/>
</clipPath>
</defs>
</svg>
