<svg width="132" height="30" viewBox="0 0 132 30" fill="none" xmlns="http://www.w3.org/2000/svg">
<path d="M11.001 19.543V0.5H15.249V23H11.4258L11.001 19.543ZM0.981445 15.2656V14.958C0.981445 13.7471 1.11816 12.6484 1.3916 11.6621C1.66504 10.666 2.06543 9.81152 2.59277 9.09863C3.12012 8.38574 3.76953 7.83398 4.54102 7.44336C5.3125 7.05273 6.19141 6.85742 7.17773 6.85742C8.10547 6.85742 8.91602 7.05273 9.60938 7.44336C10.3125 7.83398 10.9082 8.39062 11.3965 9.11328C11.8945 9.82617 12.2949 10.6709 12.5977 11.6475C12.9004 12.6143 13.1201 13.6738 13.2568 14.8262V15.5C13.1201 16.6035 12.9004 17.6289 12.5977 18.5762C12.2949 19.5234 11.8945 20.3535 11.3965 21.0664C10.9082 21.7695 10.3125 22.3164 9.60938 22.707C8.90625 23.0977 8.08594 23.293 7.14844 23.293C6.16211 23.293 5.2832 23.0928 4.51172 22.6924C3.75 22.292 3.10547 21.7305 2.57812 21.0078C2.06055 20.2852 1.66504 19.4355 1.3916 18.459C1.11816 17.4824 0.981445 16.418 0.981445 15.2656ZM5.2002 14.958V15.2656C5.2002 15.9199 5.24902 16.5303 5.34668 17.0967C5.4541 17.6631 5.625 18.166 5.85938 18.6055C6.10352 19.0352 6.41602 19.3721 6.79688 19.6162C7.1875 19.8506 7.66113 19.9678 8.21777 19.9678C8.94043 19.9678 9.53613 19.8066 10.0049 19.4844C10.4736 19.1523 10.8301 18.6982 11.0742 18.1221C11.3281 17.5459 11.4746 16.8818 11.5137 16.1299V14.2109C11.4844 13.5957 11.3965 13.0439 11.25 12.5557C11.1133 12.0576 10.9082 11.6328 10.6348 11.2812C10.3711 10.9297 10.0391 10.6562 9.63867 10.4609C9.24805 10.2656 8.78418 10.168 8.24707 10.168C7.7002 10.168 7.23145 10.2949 6.84082 10.5488C6.4502 10.793 6.13281 11.1299 5.88867 11.5596C5.6543 11.9893 5.47852 12.4971 5.36133 13.083C5.25391 13.6592 5.2002 14.2842 5.2002 14.958ZM24.3398 23.293C23.1094 23.293 22.0059 23.0977 21.0293 22.707C20.0527 22.3066 19.2227 21.7549 18.5391 21.0518C17.8652 20.3486 17.3477 19.5332 16.9863 18.6055C16.625 17.668 16.4443 16.6719 16.4443 15.6172V15.0312C16.4443 13.8301 16.6152 12.7314 16.957 11.7354C17.2988 10.7393 17.7871 9.875 18.4219 9.14258C19.0664 8.41016 19.8477 7.84863 20.7656 7.45801C21.6836 7.05762 22.7188 6.85742 23.8711 6.85742C24.9941 6.85742 25.9902 7.04297 26.8594 7.41406C27.7285 7.78516 28.4561 8.3125 29.042 8.99609C29.6377 9.67969 30.0869 10.5 30.3896 11.457C30.6924 12.4043 30.8438 13.459 30.8438 14.6211V16.3789H18.2461V13.5664H26.6982V13.2441C26.6982 12.6582 26.5908 12.1357 26.376 11.6768C26.1709 11.208 25.8584 10.8369 25.4385 10.5635C25.0186 10.29 24.4814 10.1533 23.8271 10.1533C23.2705 10.1533 22.792 10.2754 22.3916 10.5195C21.9912 10.7637 21.6641 11.1055 21.4102 11.5449C21.166 11.9844 20.9805 12.502 20.8535 13.0977C20.7363 13.6836 20.6777 14.3281 20.6777 15.0312V15.6172C20.6777 16.252 20.7656 16.8379 20.9414 17.375C21.127 17.9121 21.3857 18.376 21.7178 18.7666C22.0596 19.1572 22.4697 19.46 22.9482 19.6748C23.4365 19.8896 23.9883 19.9971 24.6035 19.9971C25.3652 19.9971 26.0732 19.8506 26.7275 19.5576C27.3916 19.2549 27.9629 18.8008 28.4414 18.1953L30.4922 20.4219C30.1602 20.9004 29.7061 21.3594 29.1299 21.7988C28.5635 22.2383 27.8799 22.5996 27.0791 22.8828C26.2783 23.1562 25.3652 23.293 24.3398 23.293ZM35.9648 10.4316V23H31.7314V7.15039H35.7012L35.9648 10.4316ZM35.3789 14.5186H34.207C34.207 13.415 34.3389 12.3994 34.6025 11.4717C34.876 10.5342 35.2715 9.72363 35.7891 9.04004C36.3164 8.34668 36.9658 7.80957 37.7373 7.42871C38.5088 7.04785 39.4023 6.85742 40.418 6.85742C41.1211 6.85742 41.7656 6.96484 42.3516 7.17969C42.9375 7.38477 43.4404 7.71191 43.8604 8.16113C44.29 8.60059 44.6221 9.17676 44.8564 9.88965C45.0908 10.5928 45.208 11.4375 45.208 12.4238V23H40.9893V12.8926C40.9893 12.1699 40.8916 11.6133 40.6963 11.2227C40.501 10.832 40.2227 10.5586 39.8613 10.4023C39.5098 10.2461 39.085 10.168 38.5869 10.168C38.04 10.168 37.5615 10.2803 37.1514 10.5049C36.751 10.7295 36.4189 11.042 36.1553 11.4424C35.8916 11.833 35.6963 12.292 35.5693 12.8193C35.4424 13.3467 35.3789 13.9131 35.3789 14.5186ZM44.8125 14.0352L43.3037 14.2256C43.3037 13.1904 43.4307 12.2285 43.6846 11.3398C43.9482 10.4512 44.334 9.66992 44.8418 8.99609C45.3594 8.32227 45.999 7.7998 46.7607 7.42871C47.5225 7.04785 48.4014 6.85742 49.3975 6.85742C50.1592 6.85742 50.8525 6.96973 51.4775 7.19434C52.1025 7.40918 52.6348 7.75586 53.0742 8.23438C53.5234 8.70312 53.8652 9.31836 54.0996 10.0801C54.3438 10.8418 54.4658 11.7744 54.4658 12.8779V23H50.2324V12.8779C50.2324 12.1455 50.1348 11.5889 49.9395 11.208C49.7539 10.8174 49.4805 10.5488 49.1191 10.4023C48.7676 10.2461 48.3477 10.168 47.8594 10.168C47.3516 10.168 46.9072 10.2705 46.5264 10.4756C46.1455 10.6709 45.8281 10.9443 45.5742 11.2959C45.3203 11.6475 45.1299 12.0576 45.0029 12.5264C44.876 12.9854 44.8125 13.4883 44.8125 14.0352ZM55.5586 15.2363V14.9287C55.5586 13.7666 55.7246 12.6973 56.0566 11.7207C56.3887 10.7344 56.8721 9.87988 57.5068 9.15723C58.1416 8.43457 58.9229 7.87305 59.8506 7.47266C60.7783 7.0625 61.8428 6.85742 63.0439 6.85742C64.2451 6.85742 65.3145 7.0625 66.252 7.47266C67.1895 7.87305 67.9756 8.43457 68.6104 9.15723C69.2549 9.87988 69.7432 10.7344 70.0752 11.7207C70.4072 12.6973 70.5732 13.7666 70.5732 14.9287V15.2363C70.5732 16.3887 70.4072 17.458 70.0752 18.4443C69.7432 19.4209 69.2549 20.2754 68.6104 21.0078C67.9756 21.7305 67.1943 22.292 66.2666 22.6924C65.3389 23.0928 64.2744 23.293 63.0732 23.293C61.8721 23.293 60.8027 23.0928 59.8652 22.6924C58.9375 22.292 58.1514 21.7305 57.5068 21.0078C56.8721 20.2754 56.3887 19.4209 56.0566 18.4443C55.7246 17.458 55.5586 16.3887 55.5586 15.2363ZM59.7773 14.9287V15.2363C59.7773 15.9004 59.8359 16.5205 59.9531 17.0967C60.0703 17.6729 60.2559 18.1807 60.5098 18.6201C60.7734 19.0498 61.1152 19.3867 61.5352 19.6309C61.9551 19.875 62.4678 19.9971 63.0732 19.9971C63.6592 19.9971 64.1621 19.875 64.582 19.6309C65.002 19.3867 65.3389 19.0498 65.5928 18.6201C65.8467 18.1807 66.0322 17.6729 66.1494 17.0967C66.2764 16.5205 66.3398 15.9004 66.3398 15.2363V14.9287C66.3398 14.2842 66.2764 13.6787 66.1494 13.1123C66.0322 12.5361 65.8418 12.0283 65.5781 11.5889C65.3242 11.1396 64.9873 10.7881 64.5674 10.5342C64.1475 10.2803 63.6396 10.1533 63.0439 10.1533C62.4482 10.1533 61.9404 10.2803 61.5205 10.5342C61.1104 10.7881 60.7734 11.1396 60.5098 11.5889C60.2559 12.0283 60.0703 12.5361 59.9531 13.1123C59.8359 13.6787 59.7773 14.2842 59.7773 14.9287ZM85.6406 19.5723V23H74.9033V19.5723H85.6406ZM76.3242 1.67188V23H71.9297V1.67188H76.3242ZM85.7227 15.2363V14.9287C85.7227 13.7666 85.8887 12.6973 86.2207 11.7207C86.5527 10.7344 87.0361 9.87988 87.6709 9.15723C88.3057 8.43457 89.0869 7.87305 90.0146 7.47266C90.9424 7.0625 92.0068 6.85742 93.208 6.85742C94.4092 6.85742 95.4785 7.0625 96.416 7.47266C97.3535 7.87305 98.1396 8.43457 98.7744 9.15723C99.4189 9.87988 99.9072 10.7344 100.239 11.7207C100.571 12.6973 100.737 13.7666 100.737 14.9287V15.2363C100.737 16.3887 100.571 17.458 100.239 18.4443C99.9072 19.4209 99.4189 20.2754 98.7744 21.0078C98.1396 21.7305 97.3584 22.292 96.4307 22.6924C95.5029 23.0928 94.4385 23.293 93.2373 23.293C92.0361 23.293 90.9668 23.0928 90.0293 22.6924C89.1016 22.292 88.3154 21.7305 87.6709 21.0078C87.0361 20.2754 86.5527 19.4209 86.2207 18.4443C85.8887 17.458 85.7227 16.3887 85.7227 15.2363ZM89.9414 14.9287V15.2363C89.9414 15.9004 90 16.5205 90.1172 17.0967C90.2344 17.6729 90.4199 18.1807 90.6738 18.6201C90.9375 19.0498 91.2793 19.3867 91.6992 19.6309C92.1191 19.875 92.6318 19.9971 93.2373 19.9971C93.8232 19.9971 94.3262 19.875 94.7461 19.6309C95.166 19.3867 95.5029 19.0498 95.7568 18.6201C96.0107 18.1807 96.1963 17.6729 96.3135 17.0967C96.4404 16.5205 96.5039 15.9004 96.5039 15.2363V14.9287C96.5039 14.2842 96.4404 13.6787 96.3135 13.1123C96.1963 12.5361 96.0059 12.0283 95.7422 11.5889C95.4883 11.1396 95.1514 10.7881 94.7314 10.5342C94.3115 10.2803 93.8037 10.1533 93.208 10.1533C92.6123 10.1533 92.1045 10.2803 91.6846 10.5342C91.2744 10.7881 90.9375 11.1396 90.6738 11.5889C90.4199 12.0283 90.2344 12.5361 90.1172 13.1123C90 13.6787 89.9414 14.2842 89.9414 14.9287ZM111.864 7.15039H115.688V22.4727C115.688 23.918 115.365 25.1436 114.721 26.1494C114.086 27.165 113.197 27.9316 112.055 28.4492C110.912 28.9766 109.584 29.2402 108.07 29.2402C107.406 29.2402 106.703 29.1523 105.961 28.9766C105.229 28.8008 104.525 28.5273 103.852 28.1562C103.188 27.7852 102.631 27.3164 102.182 26.75L104.042 24.2598C104.53 24.8262 105.097 25.2656 105.741 25.5781C106.386 25.9004 107.099 26.0615 107.88 26.0615C108.642 26.0615 109.286 25.9199 109.813 25.6367C110.341 25.3633 110.746 24.958 111.029 24.4209C111.312 23.8936 111.454 23.2539 111.454 22.502V10.8125L111.864 7.15039ZM101.2 15.2656V14.958C101.2 13.7471 101.347 12.6484 101.64 11.6621C101.942 10.666 102.367 9.81152 102.914 9.09863C103.471 8.38574 104.145 7.83398 104.936 7.44336C105.727 7.05273 106.62 6.85742 107.616 6.85742C108.671 6.85742 109.555 7.05273 110.268 7.44336C110.98 7.83398 111.566 8.39062 112.025 9.11328C112.484 9.82617 112.841 10.6709 113.095 11.6475C113.358 12.6143 113.563 13.6738 113.71 14.8262V15.5C113.563 16.6035 113.344 17.6289 113.051 18.5762C112.758 19.5234 112.372 20.3535 111.894 21.0664C111.415 21.7695 110.819 22.3164 110.106 22.707C109.403 23.0977 108.563 23.293 107.587 23.293C106.61 23.293 105.727 23.0928 104.936 22.6924C104.154 22.292 103.485 21.7305 102.929 21.0078C102.372 20.2852 101.942 19.4355 101.64 18.459C101.347 17.4824 101.2 16.418 101.2 15.2656ZM105.419 14.958V15.2656C105.419 15.9199 105.482 16.5303 105.609 17.0967C105.736 17.6631 105.932 18.166 106.195 18.6055C106.469 19.0352 106.806 19.3721 107.206 19.6162C107.616 19.8506 108.1 19.9678 108.656 19.9678C109.428 19.9678 110.058 19.8066 110.546 19.4844C111.034 19.1523 111.4 18.6982 111.645 18.1221C111.889 17.5459 112.03 16.8818 112.069 16.1299V14.2109C112.05 13.5957 111.967 13.0439 111.82 12.5557C111.674 12.0576 111.469 11.6328 111.205 11.2812C110.941 10.9297 110.6 10.6562 110.18 10.4609C109.76 10.2656 109.262 10.168 108.686 10.168C108.129 10.168 107.646 10.2949 107.235 10.5488C106.835 10.793 106.498 11.1299 106.225 11.5596C105.961 11.9893 105.761 12.4971 105.624 13.083C105.487 13.6592 105.419 14.2842 105.419 14.958ZM116.795 15.2363V14.9287C116.795 13.7666 116.961 12.6973 117.293 11.7207C117.625 10.7344 118.108 9.87988 118.743 9.15723C119.378 8.43457 120.159 7.87305 121.087 7.47266C122.015 7.0625 123.079 6.85742 124.28 6.85742C125.481 6.85742 126.551 7.0625 127.488 7.47266C128.426 7.87305 129.212 8.43457 129.847 9.15723C130.491 9.87988 130.979 10.7344 131.312 11.7207C131.644 12.6973 131.81 13.7666 131.81 14.9287V15.2363C131.81 16.3887 131.644 17.458 131.312 18.4443C130.979 19.4209 130.491 20.2754 129.847 21.0078C129.212 21.7305 128.431 22.292 127.503 22.6924C126.575 23.0928 125.511 23.293 124.31 23.293C123.108 23.293 122.039 23.0928 121.102 22.6924C120.174 22.292 119.388 21.7305 118.743 21.0078C118.108 20.2754 117.625 19.4209 117.293 18.4443C116.961 17.458 116.795 16.3887 116.795 15.2363ZM121.014 14.9287V15.2363C121.014 15.9004 121.072 16.5205 121.189 17.0967C121.307 17.6729 121.492 18.1807 121.746 18.6201C122.01 19.0498 122.352 19.3867 122.771 19.6309C123.191 19.875 123.704 19.9971 124.31 19.9971C124.896 19.9971 125.398 19.875 125.818 19.6309C126.238 19.3867 126.575 19.0498 126.829 18.6201C127.083 18.1807 127.269 17.6729 127.386 17.0967C127.513 16.5205 127.576 15.9004 127.576 15.2363V14.9287C127.576 14.2842 127.513 13.6787 127.386 13.1123C127.269 12.5361 127.078 12.0283 126.814 11.5889C126.561 11.1396 126.224 10.7881 125.804 10.5342C125.384 10.2803 124.876 10.1533 124.28 10.1533C123.685 10.1533 123.177 10.2803 122.757 10.5342C122.347 10.7881 122.01 11.1396 121.746 11.5889C121.492 12.0283 121.307 12.5361 121.189 13.1123C121.072 13.6787 121.014 14.2842 121.014 14.9287Z" fill="#787878"/>
</svg>
