<svg width="110" height="110" viewBox="0 0 110 110" fill="none" xmlns="http://www.w3.org/2000/svg">
<g clip-path="url(#clip0_209_2)">
<path d="M107.07 92.93L91.69 77.59C96.94 69.68 100 60.2 100 50C100 22.39 77.61 0 50 0C22.39 0 0 22.39 0 50C0 77.61 22.39 100 50 100C60.2 100 69.68 96.94 77.59 91.69L92.93 107.07C96.84 110.98 103.17 110.98 107.07 107.07C110.98 103.16 110.98 96.83 107.07 92.93V92.93ZM50 80C33.43 80 20 66.57 20 50C20 33.43 33.43 20 50 20C66.57 20 80 33.43 80 50C80 54.65 78.94 59.06 77.05 62.99C74.1 69.12 69.12 74.1 62.99 77.05C59.06 78.94 54.65 80 50 80Z" fill="black"/>
</g>
<defs>
<clipPath id="clip0_209_2">
<rect width="110" height="110" fill="white"/>
</clipPath>
</defs>
</svg>
