<svg width="70" height="93" viewBox="0 0 70 93" fill="none" xmlns="http://www.w3.org/2000/svg">
<g clip-path="url(#clip0_213_14)">
<path d="M55.7099 87.55C55.2999 90.39 52.8699 92.5 49.9999 92.5H19.9999C17.1299 92.5 14.6999 90.39 14.2899 87.55L5.93991 29.08C5.43991 25.61 8.13991 22.5 11.6499 22.5H58.3499C61.8599 22.5 64.5499 25.61 64.0599 29.08L55.7099 87.55Z" fill="black"/>
<path d="M65 7.5H42.5C41.12 7.5 40 6.38 40 5C40 2.24 37.76 0 35 0C32.24 0 30 2.24 30 5C30 6.38 28.88 7.5 27.5 7.5H5C2.24 7.5 0 9.74 0 12.5C0 15.26 2.24 17.5 5 17.5H65C67.76 17.5 70 15.26 70 12.5C70 9.74 67.76 7.5 65 7.5Z" fill="black"/>
</g>
<defs>
<clipPath id="clip0_213_14">
<rect width="70" height="92.5" fill="white"/>
</clipPath>
</defs>
</svg>
