<svg width="100" height="220" viewBox="0 0 100 220" fill="none" xmlns="http://www.w3.org/2000/svg">
<path d="M40 20C40 8.9543 31.0457 0 20 0C8.9543 0 0 8.9543 0 20C0 31.0457 8.9543 40 20 40C31.0457 40 40 31.0457 40 20Z" fill="black"/>
<path d="M40 200C40 188.954 31.0457 180 20 180C8.9543 180 0 188.954 0 200C0 211.046 8.9543 220 20 220C31.0457 220 40 211.046 40 200Z" fill="black"/>
<path d="M40 140C40 128.954 31.0457 120 20 120C8.9543 120 0 128.954 0 140C0 151.046 8.9543 160 20 160C31.0457 160 40 151.046 40 140Z" fill="black"/>
<path d="M40 80C40 68.9543 31.0457 60 20 60C8.9543 60 0 68.9543 0 80C0 91.0457 8.9543 100 20 100C31.0457 100 40 91.0457 40 80Z" fill="black"/>
<path d="M100 20C100 8.9543 91.0457 0 80 0C68.9543 0 60 8.9543 60 20C60 31.0457 68.9543 40 80 40C91.0457 40 100 31.0457 100 20Z" fill="black"/>
<path d="M100 200C100 188.954 91.0457 180 80 180C68.9543 180 60 188.954 60 200C60 211.046 68.9543 220 80 220C91.0457 220 100 211.046 100 200Z" fill="black"/>
<path d="M100 140C100 128.954 91.0457 120 80 120C68.9543 120 60 128.954 60 140C60 151.046 68.9543 160 80 160C91.0457 160 100 151.046 100 140Z" fill="black"/>
<path d="M100 80C100 68.9543 91.0457 60 80 60C68.9543 60 60 68.9543 60 80C60 91.0457 68.9543 100 80 100C91.0457 100 100 91.0457 100 80Z" fill="black"/>
</svg>
