<svg width="100" height="100" viewBox="0 0 100 100" fill="none" xmlns="http://www.w3.org/2000/svg">
<path d="M10 10V90H90V10H10ZM80 80H20V20H80V80Z" fill="black"/>
<path d="M15 30C23.2843 30 30 23.2843 30 15C30 6.71573 23.2843 0 15 0C6.71573 0 0 6.71573 0 15C0 23.2843 6.71573 30 15 30Z" fill="black"/>
<path d="M85 30C93.2843 30 100 23.2843 100 15C100 6.71573 93.2843 0 85 0C76.7157 0 70 6.71573 70 15C70 23.2843 76.7157 30 85 30Z" fill="black"/>
<path d="M85 100C93.2843 100 100 93.2843 100 85C100 76.7157 93.2843 70 85 70C76.7157 70 70 76.7157 70 85C70 93.2843 76.7157 100 85 100Z" fill="black"/>
<path d="M15 100C23.2843 100 30 93.2843 30 85C30 76.7157 23.2843 70 15 70C6.71573 70 0 76.7157 0 85C0 93.2843 6.71573 100 15 100Z" fill="black"/>
</svg>
